<?xml version="1.0" standalone="no"?><!DOCTYPE svg PUBLIC "-//W3C//DTD SVG 1.1//EN" "http://www.w3.org/Graphics/SVG/1.1/DTD/svg11.dtd"><svg class="icon" width="200px" height="200.00px" viewBox="0 0 1024 1024" version="1.1" xmlns="http://www.w3.org/2000/svg"><path d="M516.266667 196.266667c29.866667 21.333333 68.266667 46.933333 85.333333 81.066666 76.8 128 42.666667 264.533333 38.4 264.533334l-34.133333 123.733333 102.4-81.066667c34.133333-29.866667 51.2-85.333333 55.466666-136.533333 34.133333 51.2 51.2 102.4 46.933334 149.333333-12.8 119.466667-128 209.066667-174.933334 243.2-132.266667-85.333333-128-238.933333-128-247.466666l4.266667-119.466667-81.066667 89.6c-59.733333 76.8-89.6 149.333333-81.066666 213.333333-55.466667-42.666667-85.333333-93.866667-89.6-149.333333-8.533333-102.4 81.066667-209.066667 145.066666-251.733333C486.4 328.533333 507.733333 256 516.266667 196.266667M469.333333 128s29.866667 140.8-85.333333 213.333333c-123.733333 76.8-345.6 371.2 85.333333 554.666667 0 0-179.2-102.4 0-298.666667 0 0-8.533333 204.8 170.666667 298.666667 0 0 422.4-251.733333 85.333333-554.666667 0 0 12.8 166.4-42.666666 213.333334 0 0 38.4-153.6-46.933334-298.666667C588.8 170.666667 469.333333 128 469.333333 128z"  /></svg>